<svg width="305" height="271" viewBox="0 0 305 271" fill="none" xmlns="http://www.w3.org/2000/svg">
<ellipse cx="53.1891" cy="54.8152" rx="53.1891" ry="54.8152" fill="#B1B4C5"/>
<ellipse cx="53.1891" cy="52.385" rx="53.1891" ry="52.385" fill="url(#paint0_linear_0_1463)"/>
<ellipse cx="53.1891" cy="53.4651" rx="40.8321" ry="41.0439" fill="#E1E4ED"/>
<path d="M69.0538 42.8384C68.7529 42.7224 68.4396 42.672 68.1505 42.6924C67.7327 42.7217 67.3953 42.893 67.1954 43.1734C66.018 44.8386 65.0537 47.9835 64.2761 50.5104C63.9192 51.6789 63.4401 53.2427 63.0932 53.9849C62.7313 51.9056 63.14 44.2884 63.2986 41.355L63.3012 41.3076C63.4111 39.2696 63.4259 38.9122 63.4018 38.7553C63.2271 37.6373 62.7834 36.9035 62.0824 36.575C61.3737 36.2419 60.4533 36.3893 59.4619 36.9917C58.9648 37.2952 58.8273 38.3369 58.4006 43.0589L58.3991 43.0797C58.1641 45.6739 57.6234 51.6472 56.9579 52.6419C56.2071 51.2502 55.1741 43.3425 54.7282 39.9197C54.4162 37.5226 54.2345 36.1462 54.1124 35.7305C53.8552 34.8596 52.7694 34.1186 51.6943 34.0775C50.7995 34.0327 50.0653 34.4922 49.7149 35.2908C49.0593 36.0274 49.2909 38.47 50.0155 44.2554C50.3605 47.0088 51.0724 52.6962 50.6244 53.3342C49.731 53.2361 48.1972 49.6736 46.0652 42.7426C45.467 40.8015 45.2818 40.2177 45.0981 39.9621C44.736 39.072 43.5051 38.3854 42.4016 38.463C42.3073 38.4696 42.2157 38.482 42.1252 38.4994C41.5475 38.6152 40.2293 39.1521 40.5103 41.6296C41.2887 45.0644 42.1342 47.5864 42.9548 50.0341L42.9714 50.0831C43.4623 51.5492 43.9265 52.9346 44.3577 54.4719C45.3743 58.1018 44.979 60.3539 44.9742 60.3793C44.9404 60.6111 44.8695 60.7526 44.7629 60.8021C44.7245 60.8203 44.6753 60.8311 44.6199 60.835C44.2978 60.8577 43.8146 60.6423 43.5655 60.5019C42.9967 59.4043 40.1645 54.1727 37.5981 53.4472L37.5059 53.4197L37.4126 53.4284C36.4714 53.5182 35.7793 53.8774 35.3563 54.4959C34.686 55.474 34.9635 56.7198 35.0308 56.9696L35.0686 57.0591C35.0896 57.0968 37.1476 60.885 37.4662 62.6472C37.7408 64.158 39.1619 65.7955 40.3044 67.1111L40.3514 67.1646C40.7241 67.5951 41.0458 67.9671 41.2995 68.3115C44.6146 71.8026 49.8574 74.7392 49.9001 74.7628C50.5542 75.2502 50.918 75.7211 50.9564 76.1265C50.9807 76.3918 50.8442 76.5505 50.8395 76.5559L50.7253 76.6761L51.45 77.3873L65.2818 76.4061L65.8715 73.6778C67.695 65.9722 67.3143 59.4021 67.3083 59.3582C67.315 59.1165 67.8261 56.7788 68.2371 54.8901L68.2492 54.8421C69.0685 51.0795 70.0874 46.3977 70.2828 44.6171C70.3678 43.8557 69.8854 43.1563 69.0538 42.8384Z" fill="#8A90AC"/>
<ellipse cx="249.686" cy="54.8152" rx="53.6862" ry="54.8152" fill="#B1B4C5"/>
<ellipse cx="249.686" cy="52.385" rx="53.6862" ry="52.385" fill="url(#paint1_linear_0_1463)"/>
<ellipse cx="249.686" cy="53.4651" rx="41.2137" ry="41.0439" fill="#E1E4ED"/>
<path d="M238.927 53.1138L243.379 46.8799C241.529 46.5728 238.131 46.5047 235.347 49.2766C230.96 53.646 229.183 63.085 228.812 65.3699L239.963 76.4748C241.971 76.3036 250.858 75.1219 259.422 66.5933C259.513 66.4091 261.599 64.874 259.894 63.1755C259.08 62.3648 257.732 62.3799 256.9 63.2082C256.477 63.6299 255.818 63.6361 255.404 63.2232C254.989 62.8102 254.995 62.1544 255.419 61.7327L258.445 58.719C259.983 57.1874 258.533 54.6037 256.387 55.2244L253.909 57.3366C253.457 57.7294 252.784 57.6613 252.412 57.2333C252.028 56.7902 252.11 56.1193 252.548 55.7416C261.202 48.1799 259.939 49.0906 265.506 43.8934C267.586 42.1685 264.969 39.1175 262.92 40.8644L249.451 52.9265C249.059 53.2589 248.458 53.2652 248.073 52.9114C247.628 52.5287 247.617 51.9773 247.908 51.5417L257.303 36.9964C258.676 35.1443 255.974 33.0873 254.527 34.9544L240.636 54.3022C240.301 54.7844 239.626 54.8951 239.166 54.5578C238.705 54.2493 238.578 53.5796 238.927 53.1138Z" fill="#8A90AC"/>
<ellipse cx="151.686" cy="214.815" rx="53.6862" ry="54.8152" fill="#B1B4C5"/>
<ellipse cx="151.686" cy="212.385" rx="53.6862" ry="52.385" fill="url(#paint2_linear_0_1463)"/>
<ellipse cx="151.686" cy="213.465" rx="41.2137" ry="41.0439" fill="#E1E4ED"/>
<path d="M167.652 207.57C167.176 201.574 160.444 202.186 160.444 202.186C157.602 197.175 153.162 200.805 153.162 200.805C149.752 195.894 145.476 200.445 145.476 200.445C138.103 199.649 138.389 205.679 138.389 205.679C138.215 207.596 139.428 213.526 139.428 213.526C138.334 210.108 135.962 212.945 135.962 212.945C133.045 217.447 135.241 219.912 135.241 219.912C139.187 224.539 147.598 230.092 147.598 230.092C150.643 231.837 149.355 233.393 149.355 233.393L167.775 230.348L168.199 226.854C170.999 218.382 167.652 207.57 167.652 207.57Z" fill="#8A90AC"/>
<path d="M136.769 30C136.674 30 136.613 29.9567 136.587 29.87L134.325 21.069V21.017C134.325 20.939 134.373 20.9 134.468 20.9H136.119C136.214 20.9 136.271 20.9477 136.288 21.043L137.601 27.088C137.61 27.1227 137.623 27.14 137.64 27.14C137.657 27.14 137.67 27.1227 137.679 27.088L138.979 21.043C138.996 20.9477 139.053 20.9 139.148 20.9H140.747C140.868 20.9 140.916 20.9563 140.89 21.069L138.602 29.87C138.576 29.9567 138.515 30 138.42 30H136.769ZM147.4 22.317C147.4 22.3603 147.383 22.3993 147.348 22.434C147.322 22.46 147.287 22.473 147.244 22.473H143.76C143.717 22.473 143.695 22.4947 143.695 22.538V24.566C143.695 24.6093 143.717 24.631 143.76 24.631H145.931C145.974 24.631 146.009 24.6483 146.035 24.683C146.07 24.709 146.087 24.7437 146.087 24.787V26.048C146.087 26.0913 146.07 26.1303 146.035 26.165C146.009 26.191 145.974 26.204 145.931 26.204H143.76C143.717 26.204 143.695 26.2257 143.695 26.269V28.362C143.695 28.4053 143.717 28.427 143.76 28.427H147.244C147.287 28.427 147.322 28.4443 147.348 28.479C147.383 28.505 147.4 28.5397 147.4 28.583V29.844C147.4 29.8873 147.383 29.9263 147.348 29.961C147.322 29.987 147.287 30 147.244 30H142.018C141.975 30 141.936 29.987 141.901 29.961C141.875 29.9263 141.862 29.8873 141.862 29.844V21.056C141.862 21.0127 141.875 20.978 141.901 20.952C141.936 20.9173 141.975 20.9 142.018 20.9H147.244C147.287 20.9 147.322 20.9173 147.348 20.952C147.383 20.978 147.4 21.0127 147.4 21.056V22.317ZM152.974 21.056C152.974 21.0127 152.987 20.978 153.013 20.952C153.047 20.9173 153.086 20.9 153.13 20.9H154.638C154.681 20.9 154.716 20.9173 154.742 20.952C154.776 20.978 154.794 21.0127 154.794 21.056V29.844C154.794 29.8873 154.776 29.9263 154.742 29.961C154.716 29.987 154.681 30 154.638 30H153.052C152.965 30 152.904 29.961 152.87 29.883L150.387 24.592C150.369 24.566 150.352 24.553 150.335 24.553C150.317 24.553 150.309 24.5703 150.309 24.605L150.322 29.844C150.322 29.8873 150.304 29.9263 150.27 29.961C150.244 29.987 150.209 30 150.166 30H148.658C148.614 30 148.575 29.987 148.541 29.961C148.515 29.9263 148.502 29.8873 148.502 29.844V21.056C148.502 21.0127 148.515 20.978 148.541 20.952C148.575 20.9173 148.614 20.9 148.658 20.9H150.231C150.317 20.9 150.378 20.939 150.413 21.017L152.896 26.308C152.913 26.334 152.93 26.347 152.948 26.347C152.965 26.347 152.974 26.3297 152.974 26.295V21.056ZM158.99 30.104C158.401 30.104 157.881 29.987 157.43 29.753C156.98 29.519 156.629 29.1853 156.377 28.752C156.135 28.3187 156.013 27.816 156.013 27.244V23.63C156.013 23.0667 156.135 22.5727 156.377 22.148C156.629 21.7147 156.98 21.381 157.43 21.147C157.881 20.913 158.401 20.796 158.99 20.796C159.58 20.796 160.1 20.913 160.55 21.147C161.001 21.3723 161.348 21.693 161.59 22.109C161.842 22.525 161.967 23.0103 161.967 23.565V23.63C161.967 23.6733 161.95 23.7123 161.915 23.747C161.889 23.7817 161.855 23.799 161.811 23.799L160.29 23.864C160.186 23.864 160.134 23.8163 160.134 23.721V23.552C160.134 23.1967 160.03 22.9107 159.822 22.694C159.614 22.4773 159.337 22.369 158.99 22.369C158.644 22.369 158.366 22.4773 158.158 22.694C157.95 22.9107 157.846 23.1967 157.846 23.552V27.361C157.846 27.7163 157.95 28.0023 158.158 28.219C158.366 28.427 158.644 28.531 158.99 28.531C159.337 28.531 159.614 28.427 159.822 28.219C160.03 28.0023 160.134 27.7163 160.134 27.361V27.192C160.134 27.0967 160.186 27.049 160.29 27.049L161.811 27.114C161.855 27.114 161.889 27.1313 161.915 27.166C161.95 27.192 161.967 27.2267 161.967 27.27V27.309C161.967 27.8637 161.842 28.3533 161.59 28.778C161.348 29.2027 161.001 29.532 160.55 29.766C160.1 29.9913 159.58 30.104 158.99 30.104ZM168.677 22.317C168.677 22.3603 168.66 22.3993 168.625 22.434C168.599 22.46 168.565 22.473 168.521 22.473H165.037C164.994 22.473 164.972 22.4947 164.972 22.538V24.566C164.972 24.6093 164.994 24.631 165.037 24.631H167.208C167.252 24.631 167.286 24.6483 167.312 24.683C167.347 24.709 167.364 24.7437 167.364 24.787V26.048C167.364 26.0913 167.347 26.1303 167.312 26.165C167.286 26.191 167.252 26.204 167.208 26.204H165.037C164.994 26.204 164.972 26.2257 164.972 26.269V28.362C164.972 28.4053 164.994 28.427 165.037 28.427H168.521C168.565 28.427 168.599 28.4443 168.625 28.479C168.66 28.505 168.677 28.5397 168.677 28.583V29.844C168.677 29.8873 168.66 29.9263 168.625 29.961C168.599 29.987 168.565 30 168.521 30H163.295C163.252 30 163.213 29.987 163.178 29.961C163.152 29.9263 163.139 29.8873 163.139 29.844V21.056C163.139 21.0127 163.152 20.978 163.178 20.952C163.213 20.9173 163.252 20.9 163.295 20.9H168.521C168.565 20.9 168.599 20.9173 168.625 20.952C168.66 20.978 168.677 21.0127 168.677 21.056V22.317Z" fill="#B1B4C5"/>
<path d="M42.769 146C42.6737 146 42.613 145.957 42.587 145.87L40.325 137.069V137.017C40.325 136.939 40.3727 136.9 40.468 136.9H42.119C42.2143 136.9 42.2707 136.948 42.288 137.043L43.601 143.088C43.6097 143.123 43.6227 143.14 43.64 143.14C43.6573 143.14 43.6703 143.123 43.679 143.088L44.979 137.043C44.9963 136.948 45.0527 136.9 45.148 136.9H46.747C46.8683 136.9 46.916 136.956 46.89 137.069L44.602 145.87C44.576 145.957 44.5153 146 44.42 146H42.769ZM53.3999 138.317C53.3999 138.36 53.3825 138.399 53.3479 138.434C53.3219 138.46 53.2872 138.473 53.2439 138.473H49.7599C49.7165 138.473 49.6949 138.495 49.6949 138.538V140.566C49.6949 140.609 49.7165 140.631 49.7599 140.631H51.9309C51.9742 140.631 52.0089 140.648 52.0349 140.683C52.0695 140.709 52.0869 140.744 52.0869 140.787V142.048C52.0869 142.091 52.0695 142.13 52.0349 142.165C52.0089 142.191 51.9742 142.204 51.9309 142.204H49.7599C49.7165 142.204 49.6949 142.226 49.6949 142.269V144.362C49.6949 144.405 49.7165 144.427 49.7599 144.427H53.2439C53.2872 144.427 53.3219 144.444 53.3479 144.479C53.3825 144.505 53.3999 144.54 53.3999 144.583V145.844C53.3999 145.887 53.3825 145.926 53.3479 145.961C53.3219 145.987 53.2872 146 53.2439 146H48.0179C47.9745 146 47.9355 145.987 47.9009 145.961C47.8749 145.926 47.8619 145.887 47.8619 145.844V137.056C47.8619 137.013 47.8749 136.978 47.9009 136.952C47.9355 136.917 47.9745 136.9 48.0179 136.9H53.2439C53.2872 136.9 53.3219 136.917 53.3479 136.952C53.3825 136.978 53.3999 137.013 53.3999 137.056V138.317ZM58.9735 137.056C58.9735 137.013 58.9865 136.978 59.0125 136.952C59.0472 136.917 59.0862 136.9 59.1295 136.9H60.6375C60.6808 136.9 60.7155 136.917 60.7415 136.952C60.7762 136.978 60.7935 137.013 60.7935 137.056V145.844C60.7935 145.887 60.7762 145.926 60.7415 145.961C60.7155 145.987 60.6808 146 60.6375 146H59.0515C58.9648 146 58.9042 145.961 58.8695 145.883L56.3865 140.592C56.3692 140.566 56.3518 140.553 56.3345 140.553C56.3172 140.553 56.3085 140.57 56.3085 140.605L56.3215 145.844C56.3215 145.887 56.3042 145.926 56.2695 145.961C56.2435 145.987 56.2088 146 56.1655 146H54.6575C54.6142 146 54.5752 145.987 54.5405 145.961C54.5145 145.926 54.5015 145.887 54.5015 145.844V137.056C54.5015 137.013 54.5145 136.978 54.5405 136.952C54.5752 136.917 54.6142 136.9 54.6575 136.9H56.2305C56.3172 136.9 56.3778 136.939 56.4125 137.017L58.8955 142.308C58.9128 142.334 58.9302 142.347 58.9475 142.347C58.9648 142.347 58.9735 142.33 58.9735 142.295V137.056ZM64.9905 146.104C64.4011 146.104 63.8811 145.987 63.4305 145.753C62.9798 145.519 62.6288 145.185 62.3775 144.752C62.1348 144.319 62.0135 143.816 62.0135 143.244V139.63C62.0135 139.067 62.1348 138.573 62.3775 138.148C62.6288 137.715 62.9798 137.381 63.4305 137.147C63.8811 136.913 64.4011 136.796 64.9905 136.796C65.5798 136.796 66.0998 136.913 66.5505 137.147C67.0011 137.372 67.3478 137.693 67.5905 138.109C67.8418 138.525 67.9675 139.01 67.9675 139.565V139.63C67.9675 139.673 67.9501 139.712 67.9155 139.747C67.8895 139.782 67.8548 139.799 67.8115 139.799L66.2905 139.864C66.1865 139.864 66.1345 139.816 66.1345 139.721V139.552C66.1345 139.197 66.0305 138.911 65.8225 138.694C65.6145 138.477 65.3371 138.369 64.9905 138.369C64.6438 138.369 64.3665 138.477 64.1585 138.694C63.9505 138.911 63.8465 139.197 63.8465 139.552V143.361C63.8465 143.716 63.9505 144.002 64.1585 144.219C64.3665 144.427 64.6438 144.531 64.9905 144.531C65.3371 144.531 65.6145 144.427 65.8225 144.219C66.0305 144.002 66.1345 143.716 66.1345 143.361V143.192C66.1345 143.097 66.1865 143.049 66.2905 143.049L67.8115 143.114C67.8548 143.114 67.8895 143.131 67.9155 143.166C67.9501 143.192 67.9675 143.227 67.9675 143.27V143.309C67.9675 143.864 67.8418 144.353 67.5905 144.778C67.3478 145.203 67.0011 145.532 66.5505 145.766C66.0998 145.991 65.5798 146.104 64.9905 146.104ZM74.6772 138.317C74.6772 138.36 74.6599 138.399 74.6252 138.434C74.5992 138.46 74.5645 138.473 74.5212 138.473H71.0372C70.9939 138.473 70.9722 138.495 70.9722 138.538V140.566C70.9722 140.609 70.9939 140.631 71.0372 140.631H73.2082C73.2515 140.631 73.2862 140.648 73.3122 140.683C73.3469 140.709 73.3642 140.744 73.3642 140.787V142.048C73.3642 142.091 73.3469 142.13 73.3122 142.165C73.2862 142.191 73.2515 142.204 73.2082 142.204H71.0372C70.9939 142.204 70.9722 142.226 70.9722 142.269V144.362C70.9722 144.405 70.9939 144.427 71.0372 144.427H74.5212C74.5645 144.427 74.5992 144.444 74.6252 144.479C74.6599 144.505 74.6772 144.54 74.6772 144.583V145.844C74.6772 145.887 74.6599 145.926 74.6252 145.961C74.5992 145.987 74.5645 146 74.5212 146H69.2952C69.2519 146 69.2129 145.987 69.1782 145.961C69.1522 145.926 69.1392 145.887 69.1392 145.844V137.056C69.1392 137.013 69.1522 136.978 69.1782 136.952C69.2129 136.917 69.2519 136.9 69.2952 136.9H74.5212C74.5645 136.9 74.5992 136.917 74.6252 136.952C74.6599 136.978 74.6772 137.013 74.6772 137.056V138.317Z" fill="#B1B4C5"/>
<path d="M237.769 146C237.674 146 237.613 145.957 237.587 145.87L235.325 137.069V137.017C235.325 136.939 235.373 136.9 235.468 136.9H237.119C237.214 136.9 237.271 136.948 237.288 137.043L238.601 143.088C238.61 143.123 238.623 143.14 238.64 143.14C238.657 143.14 238.67 143.123 238.679 143.088L239.979 137.043C239.996 136.948 240.053 136.9 240.148 136.9H241.747C241.868 136.9 241.916 136.956 241.89 137.069L239.602 145.87C239.576 145.957 239.515 146 239.42 146H237.769ZM248.4 138.317C248.4 138.36 248.383 138.399 248.348 138.434C248.322 138.46 248.287 138.473 248.244 138.473H244.76C244.717 138.473 244.695 138.495 244.695 138.538V140.566C244.695 140.609 244.717 140.631 244.76 140.631H246.931C246.974 140.631 247.009 140.648 247.035 140.683C247.07 140.709 247.087 140.744 247.087 140.787V142.048C247.087 142.091 247.07 142.13 247.035 142.165C247.009 142.191 246.974 142.204 246.931 142.204H244.76C244.717 142.204 244.695 142.226 244.695 142.269V144.362C244.695 144.405 244.717 144.427 244.76 144.427H248.244C248.287 144.427 248.322 144.444 248.348 144.479C248.383 144.505 248.4 144.54 248.4 144.583V145.844C248.4 145.887 248.383 145.926 248.348 145.961C248.322 145.987 248.287 146 248.244 146H243.018C242.975 146 242.936 145.987 242.901 145.961C242.875 145.926 242.862 145.887 242.862 145.844V137.056C242.862 137.013 242.875 136.978 242.901 136.952C242.936 136.917 242.975 136.9 243.018 136.9H248.244C248.287 136.9 248.322 136.917 248.348 136.952C248.383 136.978 248.4 137.013 248.4 137.056V138.317ZM253.974 137.056C253.974 137.013 253.987 136.978 254.013 136.952C254.047 136.917 254.086 136.9 254.13 136.9H255.638C255.681 136.9 255.716 136.917 255.742 136.952C255.776 136.978 255.794 137.013 255.794 137.056V145.844C255.794 145.887 255.776 145.926 255.742 145.961C255.716 145.987 255.681 146 255.638 146H254.052C253.965 146 253.904 145.961 253.87 145.883L251.387 140.592C251.369 140.566 251.352 140.553 251.335 140.553C251.317 140.553 251.309 140.57 251.309 140.605L251.322 145.844C251.322 145.887 251.304 145.926 251.27 145.961C251.244 145.987 251.209 146 251.166 146H249.658C249.614 146 249.575 145.987 249.541 145.961C249.515 145.926 249.502 145.887 249.502 145.844V137.056C249.502 137.013 249.515 136.978 249.541 136.952C249.575 136.917 249.614 136.9 249.658 136.9H251.231C251.317 136.9 251.378 136.939 251.413 137.017L253.896 142.308C253.913 142.334 253.93 142.347 253.948 142.347C253.965 142.347 253.974 142.33 253.974 142.295V137.056ZM259.99 146.104C259.401 146.104 258.881 145.987 258.43 145.753C257.98 145.519 257.629 145.185 257.377 144.752C257.135 144.319 257.013 143.816 257.013 143.244V139.63C257.013 139.067 257.135 138.573 257.377 138.148C257.629 137.715 257.98 137.381 258.43 137.147C258.881 136.913 259.401 136.796 259.99 136.796C260.58 136.796 261.1 136.913 261.55 137.147C262.001 137.372 262.348 137.693 262.59 138.109C262.842 138.525 262.967 139.01 262.967 139.565V139.63C262.967 139.673 262.95 139.712 262.915 139.747C262.889 139.782 262.855 139.799 262.811 139.799L261.29 139.864C261.186 139.864 261.134 139.816 261.134 139.721V139.552C261.134 139.197 261.03 138.911 260.822 138.694C260.614 138.477 260.337 138.369 259.99 138.369C259.644 138.369 259.366 138.477 259.158 138.694C258.95 138.911 258.846 139.197 258.846 139.552V143.361C258.846 143.716 258.95 144.002 259.158 144.219C259.366 144.427 259.644 144.531 259.99 144.531C260.337 144.531 260.614 144.427 260.822 144.219C261.03 144.002 261.134 143.716 261.134 143.361V143.192C261.134 143.097 261.186 143.049 261.29 143.049L262.811 143.114C262.855 143.114 262.889 143.131 262.915 143.166C262.95 143.192 262.967 143.227 262.967 143.27V143.309C262.967 143.864 262.842 144.353 262.59 144.778C262.348 145.203 262.001 145.532 261.55 145.766C261.1 145.991 260.58 146.104 259.99 146.104ZM269.677 138.317C269.677 138.36 269.66 138.399 269.625 138.434C269.599 138.46 269.565 138.473 269.521 138.473H266.037C265.994 138.473 265.972 138.495 265.972 138.538V140.566C265.972 140.609 265.994 140.631 266.037 140.631H268.208C268.252 140.631 268.286 140.648 268.312 140.683C268.347 140.709 268.364 140.744 268.364 140.787V142.048C268.364 142.091 268.347 142.13 268.312 142.165C268.286 142.191 268.252 142.204 268.208 142.204H266.037C265.994 142.204 265.972 142.226 265.972 142.269V144.362C265.972 144.405 265.994 144.427 266.037 144.427H269.521C269.565 144.427 269.599 144.444 269.625 144.479C269.66 144.505 269.677 144.54 269.677 144.583V145.844C269.677 145.887 269.66 145.926 269.625 145.961C269.599 145.987 269.565 146 269.521 146H264.295C264.252 146 264.213 145.987 264.178 145.961C264.152 145.926 264.139 145.887 264.139 145.844V137.056C264.139 137.013 264.152 136.978 264.178 136.952C264.213 136.917 264.252 136.9 264.295 136.9H269.521C269.565 136.9 269.599 136.917 269.625 136.952C269.66 136.978 269.677 137.013 269.677 137.056V138.317Z" fill="#B1B4C5"/>
<rect width="50" height="4" rx="2" transform="matrix(-1 0 0 1 177 49)" fill="#B1B4C5"/>
<path fill-rule="evenodd" clip-rule="evenodd" d="M137.645 41.0093C136.921 40.2874 135.747 40.2932 135.029 41.0222L126.439 49.7504C125.728 50.4732 125.734 51.6349 126.452 52.3506C127.177 53.0724 128.351 53.0666 129.068 52.3376L137.658 43.6094C138.369 42.8866 138.364 41.725 137.645 41.0093Z" fill="#B1B4C5"/>
<path fill-rule="evenodd" clip-rule="evenodd" d="M137.645 60.9907C138.364 60.2749 138.369 59.1133 137.658 58.3905L129.068 49.6623C128.35 48.9333 127.177 48.9275 126.452 49.6494C125.734 50.3651 125.728 51.5267 126.439 52.2495L135.029 60.9777C135.747 61.7067 136.92 61.7125 137.645 60.9907Z" fill="#B1B4C5"/>
<rect width="50" height="4" rx="2" transform="matrix(0.573576 0.819152 0.819152 -0.573576 80.4487 117.849)" fill="#B1B4C5"/>
<path fill-rule="evenodd" clip-rule="evenodd" d="M96.4761 154.67C96.3004 155.678 96.9784 156.636 97.9871 156.805L110.064 158.836C111.064 159.004 112.012 158.333 112.186 157.334C112.362 156.326 111.684 155.368 110.675 155.198L98.5986 153.168C97.5985 153 96.6502 153.671 96.4761 154.67Z" fill="#B1B4C5"/>
<path fill-rule="evenodd" clip-rule="evenodd" d="M112.844 143.209C111.846 143.031 110.891 143.693 110.707 144.69L108.484 156.733C108.298 157.739 108.967 158.703 109.974 158.883C110.972 159.061 111.927 158.4 112.111 157.402L114.334 145.359C114.519 144.354 113.851 143.389 112.844 143.209Z" fill="#B1B4C5"/>
<rect x="195.449" y="158.151" width="50" height="4" rx="2" transform="rotate(-55 195.449 158.151)" fill="#B1B4C5"/>
<path fill-rule="evenodd" clip-rule="evenodd" d="M211.476 121.33C211.3 120.322 211.978 119.364 212.987 119.195L225.064 117.164C226.064 116.996 227.012 117.667 227.186 118.666C227.362 119.674 226.684 120.632 225.675 120.802L213.599 122.832C212.598 123 211.65 122.329 211.476 121.33Z" fill="#B1B4C5"/>
<path fill-rule="evenodd" clip-rule="evenodd" d="M227.844 132.791C226.846 132.969 225.891 132.307 225.707 131.31L223.484 119.267C223.298 118.261 223.967 117.297 224.974 117.117C225.972 116.939 226.927 117.6 227.111 118.598L229.334 130.641C229.519 131.646 228.851 132.611 227.844 132.791Z" fill="#B1B4C5"/>
<defs>
<linearGradient id="paint0_linear_0_1463" x1="0" y1="0" x2="0" y2="104.77" gradientUnits="userSpaceOnUse">
<stop stop-color="white" stop-opacity="0.0966455"/>
<stop offset="1" stop-color="white" stop-opacity="0.01"/>
</linearGradient>
<linearGradient id="paint1_linear_0_1463" x1="196" y1="0" x2="196" y2="104.77" gradientUnits="userSpaceOnUse">
<stop stop-color="white" stop-opacity="0.0966455"/>
<stop offset="1" stop-color="white" stop-opacity="0.01"/>
</linearGradient>
<linearGradient id="paint2_linear_0_1463" x1="98" y1="160" x2="98" y2="264.77" gradientUnits="userSpaceOnUse">
<stop stop-color="white" stop-opacity="0.0966455"/>
<stop offset="1" stop-color="white" stop-opacity="0.01"/>
</linearGradient>
</defs>
</svg>
